HIERARCHY
ROOT Hips
{
	OFFSET -0.001795 -0.223333 0.028219
	CHANNELS 6 Xposition Yposition Zposition Zrotation Yrotation Xrotation 
	JOINT LeftUpLeg
	{
		OFFSET 0.069520 -0.091406 -0.006815
		CHANNELS 3 Zrotation Yrotation Xrotation
		JOINT LeftLeg
		{
			OFFSET 0.034277 -0.375199 -0.004496
			CHANNELS 3 Zrotation Yrotation Xrotation
			JOINT LeftFoot
			{
				OFFSET -0.013596 -0.397961 -0.043693
				CHANNELS 3 Zrotation Yrotation Xrotation
				JOINT LeftToe
				{
					OFFSET 0.026358 -0.055791 0.119288
					CHANNELS 3 Zrotation Yrotation Xrotation
					End Site
					{
						OFFSET 0.000000 0.000000 0.000000
					}
				}
			}
		}
	}
	JOINT RightUpLeg
	{
		OFFSET -0.067670 -0.090522 -0.004320
		CHANNELS 3 Zrotation Yrotation Xrotation
		JOINT RightLeg
		{
			OFFSET -0.038290 -0.382569 -0.008850
			CHANNELS 3 Zrotation Yrotation Xrotation
			JOINT RightFoot
			{
				OFFSET 0.015774 -0.398415 -0.042312
				CHANNELS 3 Zrotation Yrotation Xrotation
				JOINT RightToe
				{
					OFFSET -0.025372 -0.048144 0.123348
					CHANNELS 3 Zrotation Yrotation Xrotation
					End Site
					{
						OFFSET 0.000000 0.000000 0.000000
					}
				}
			}
		}
	}
	JOINT Spine
	{
		OFFSET -0.002533 0.108963 -0.026696
		CHANNELS 3 Zrotation Yrotation Xrotation
		JOINT Spine1
		{
			OFFSET 0.005487 0.135180 0.001092
			CHANNELS 3 Zrotation Yrotation Xrotation
			JOINT Spine2
			{
				OFFSET 0.001457 0.052922 0.025425
				CHANNELS 3 Zrotation Yrotation Xrotation
				JOINT Neck
				{
					OFFSET -0.002778 0.213870 -0.042857
					CHANNELS 3 Zrotation Yrotation Xrotation
					JOINT Head
					{
						OFFSET 0.005152 0.064970 0.051349
						CHANNELS 3 Zrotation Yrotation Xrotation
						End Site
						{
							OFFSET 0.000000 0.000000 0.000000
						}
					}
				}
				JOINT LeftShoulder
				{
					OFFSET 0.078845 0.121749 -0.034090
					CHANNELS 3 Zrotation Yrotation Xrotation
					JOINT LeftArm
					{
						OFFSET 0.090977 0.030469 -0.008868
						CHANNELS 3 Zrotation Yrotation Xrotation
						JOINT LeftForeArm
						{
							OFFSET 0.259612 -0.012772 -0.027456
							CHANNELS 3 Zrotation Yrotation Xrotation
							JOINT LeftHand
							{
								OFFSET 0.249234 0.008986 -0.001171
								CHANNELS 3 Zrotation Yrotation Xrotation
								End Site
								{
									OFFSET 0.000000 0.000000 0.000000
								}
							}
						}
					}
				}
				JOINT RightShoulder
				{
					OFFSET -0.081759 0.118833 -0.038615
					CHANNELS 3 Zrotation Yrotation Xrotation
					JOINT RightArm
					{
						OFFSET -0.096012 0.032551 -0.009143
						CHANNELS 3 Zrotation Yrotation Xrotation
						JOINT RightForeArm
						{
							OFFSET -0.253742 -0.013329 -0.021401
							CHANNELS 3 Zrotation Yrotation Xrotation
							JOINT RightHand
							{
								OFFSET -0.255298 0.007772 -0.005559
								CHANNELS 3 Zrotation Yrotation Xrotation
								End Site
								{
									OFFSET 0.000000 0.000000 0.000000
								}
							}
						}
					}
				}
			}
		}
	}
}
MOTION
Frames: 14
Frame Time: 0.050000
0.000000 0.779447 0.000000 -8.435469 -4.173617 11.248296 18.366251 3.417322 -39.721998 -12.532422 8.620071 59.125313 17.442223 37.790019 -9.533277 0.000000 0.000000 0.000000 -22.256786 -2.951150 -53.972730 18.872663 -5.492320 28.492687 -11.022979 -25.838616 15.064261 0.000000 0.000000 0.000000 -5.537239 2.540276 67.633703 0.241607 0.536155 -26.662100 -3.728176 6.751872 19.484017 16.543296 -10.747823 -11.623446 0.000000 0.000000 0.000000 -12.654135 -38.107779 16.831665 -22.108237 -34.152980 1.506873 27.531690 -47.018120 -10.314817 0.000000 0.000000 0.000000 26.964656 21.074991 14.576497 40.385855 31.936110 4.155108 -22.573001 59.657657 -8.084559 0.000000 0.000000 0.000000 
-0.017869 0.758589 0.028357 -8.493972 -3.664292 11.174885 20.040602 3.979760 -40.125775 -12.237794 9.064835 64.163194 17.671283 37.684370 -8.441635 0.000000 0.000000 0.000000 -24.291872 -4.267785 -56.271257 19.606229 -5.576769 26.538239 -7.468448 -19.811132 22.236509 0.000000 0.000000 0.000000 -4.645206 1.700236 67.974630 2.786727 0.316983 -32.450259 -6.075463 9.129531 26.197696 21.329669 -12.981793 -16.874928 0.000000 0.000000 0.000000 -12.956971 -38.797749 16.728955 -21.128196 -34.382448 0.926225 25.874070 -50.705473 -10.651934 0.000000 0.000000 0.000000 30.832818 20.719661 16.315301 37.479752 32.069084 2.690396 -21.889818 60.795003 -7.729614 0.000000 0.000000 0.000000 
-0.039477 0.739918 0.057779 -7.379695 -2.305993 10.285418 20.767781 3.674097 -38.330193 -12.120861 8.825388 66.655383 17.250074 37.572247 -10.334250 0.000000 0.000000 0.000000 -23.926555 -4.823745 -57.344800 19.502343 -6.831943 34.274875 -6.859691 -18.488821 17.828376 0.000000 0.000000 0.000000 -2.715298 -0.303757 68.212694 2.475185 0.355804 -32.066879 -6.951498 7.517589 26.877706 19.142825 -10.466828 -20.432661 0.000000 0.000000 0.000000 -16.143744 -38.900096 17.960693 -18.603250 -33.634953 0.430269 27.443413 -48.555278 -10.781724 0.000000 0.000000 0.000000 27.334448 20.000010 14.294223 40.479974 33.966863 4.093466 -17.429734 59.057453 -4.972695 0.000000 0.000000 0.000000 
-0.063893 0.726315 0.084953 -7.761216 -2.467568 10.117692 22.038119 3.763071 -35.641763 -9.891295 7.394544 69.014055 15.012220 34.229037 -15.067510 0.000000 0.000000 0.000000 -25.302269 -5.910866 -60.807786 24.055213 -10.398572 41.685752 -6.968606 -18.588493 18.163443 0.000000 0.000000 0.000000 -0.490301 -1.873699 69.360805 -0.801728 0.829371 -31.674628 -7.069083 4.751441 27.719345 17.144735 -9.544624 -20.221631 0.000000 0.000000 0.000000 -13.932950 -38.574668 17.728628 -20.692088 -35.019190 0.881151 31.696982 -46.833314 -11.996622 0.000000 0.000000 0.000000 26.943128 20.841572 13.643222 41.608298 35.777141 5.186575 -20.451138 58.484271 -6.828689 0.000000 0.000000 0.000000 
-0.089059 0.721065 0.109217 -7.759230 -3.656120 10.829497 23.700006 3.898012 -31.658560 -9.051162 7.190814 67.870235 12.946582 30.484746 -20.341941 0.000000 0.000000 0.000000 -24.690817 -5.356850 -63.543722 25.531920 -12.168405 46.610710 -6.866473 -18.421068 15.898791 0.000000 0.000000 0.000000 0.369699 -1.927756 68.494567 -1.211397 0.824542 -28.505132 -6.756805 4.652040 25.499655 15.390998 -8.834913 -17.578262 0.000000 0.000000 0.000000 -13.946746 -39.088099 18.105893 -21.261770 -34.076738 1.032600 35.245123 -45.674970 -13.185507 0.000000 0.000000 0.000000 26.132218 21.607551 13.831153 41.542538 37.418204 6.089373 -21.362554 58.387579 -7.407040 0.000000 0.000000 0.000000 
-0.113853 0.723051 0.130991 -7.396012 -2.948463 12.875791 24.294838 3.417292 -28.882932 -7.762161 5.796967 65.517005 10.642537 24.359726 -26.652822 0.000000 0.000000 0.000000 -24.458168 -5.586548 -64.601645 27.031703 -13.383982 47.287762 -7.923342 -20.210114 12.445742 0.000000 0.000000 0.000000 1.419292 -2.883317 67.526565 -1.381028 0.879821 -28.671884 -5.818366 2.786693 27.003788 12.402543 -6.477110 -19.898962 0.000000 0.000000 0.000000 -12.191296 -37.604492 17.357093 -22.737997 -35.377354 1.340187 32.284365 -43.501167 -11.003306 0.000000 0.000000 0.000000 24.649126 23.418780 14.037478 42.160746 39.791109 7.232672 -22.212247 57.338287 -7.862480 0.000000 0.000000 0.000000 
-0.138718 0.732119 0.152319 -6.901301 -3.703500 14.205887 23.659908 2.992524 -26.592583 -5.650655 4.349948 63.757562 9.863888 21.301472 -24.058762 0.000000 0.000000 0.000000 -23.206559 -4.457278 -64.467240 27.327727 -13.309045 46.907003 -8.327002 -21.171465 8.646747 0.000000 0.000000 0.000000 1.584462 -2.645187 66.937236 -0.156704 0.638324 -28.369040 -6.535606 3.203568 26.734711 12.226584 -5.876387 -21.621501 0.000000 0.000000 0.000000 -10.445121 -35.431013 15.767027 -27.322402 -34.505774 2.063928 28.405128 -42.954005 -9.225380 0.000000 0.000000 0.000000 24.982455 23.942392 14.567200 43.739910 42.364078 8.788435 -22.372225 56.608889 -7.697431 0.000000 0.000000 0.000000 
-0.162698 0.747891 0.175611 -6.936989 -4.198634 16.126810 22.916515 2.894331 -26.990696 -3.436036 2.901554 63.277870 10.058630 21.507680 -14.985316 0.000000 0.000000 0.000000 -21.084547 -2.936503 -64.104079 26.793629 -12.579153 45.779541 -8.548179 -21.881991 6.151661 0.000000 0.000000 0.000000 3.134109 -3.405557 64.579007 -1.912094 0.924739 -26.934321 -5.696875 1.476476 26.127966 10.895356 -5.371786 -20.971182 0.000000 0.000000 0.000000 -11.597367 -33.902517 15.925292 -30.457196 -31.353806 1.945410 21.682045 -40.458098 -6.015500 0.000000 0.000000 0.000000 26.278481 24.443875 14.481807 44.976898 43.661303 9.920245 -17.132890 53.247633 -4.821906 0.000000 0.000000 0.000000 
-0.183528 0.769006 0.202807 -6.998824 -5.487112 16.281192 23.598295 3.391983 -27.625212 -1.477406 2.010931 66.109029 7.388342 15.151164 -2.668287 0.000000 0.000000 0.000000 -18.097846 -0.720869 -62.882484 24.730586 -11.290095 46.872649 -8.056932 -20.972887 6.304622 0.000000 0.000000 0.000000 4.609488 -3.758259 61.735170 -2.946817 1.102114 -26.033088 -5.680689 1.836982 27.077383 10.334359 -4.998781 -21.438180 0.000000 0.000000 0.000000 -12.167227 -32.386268 15.382417 -35.401941 -29.084920 2.012100 17.357534 -36.707089 -3.941022 0.000000 0.000000 0.000000 25.982318 24.527190 14.372147 47.069399 44.281548 10.869318 -10.145649 50.247435 -1.407981 0.000000 0.000000 0.000000 
-0.199345 0.789678 0.234431 -5.732371 -4.970726 14.363750 22.551465 3.580198 -31.040704 0.948449 -0.437144 72.569662 2.720285 8.339917 9.518803 0.000000 0.000000 0.000000 -16.651247 -0.234214 -57.974305 22.547299 -10.172588 47.837429 -6.934925 -18.339298 4.173905 0.000000 0.000000 0.000000 5.292828 -4.398107 61.203732 -4.331889 1.417811 -24.784514 -5.189080 1.341444 25.013885 9.436210 -4.759929 -19.581350 0.000000 0.000000 0.000000 -18.645350 -33.273276 17.731660 -33.286982 -23.152193 0.390333 13.118784 -33.635699 -2.496823 0.000000 0.000000 0.000000 27.452767 23.886432 14.052592 47.905615 43.316149 10.968645 -4.654136 46.373932 0.768011 0.000000 0.000000 0.000000 
-0.208310 0.809076 0.268414 -4.960981 -5.077921 13.110996 22.200503 3.946311 -33.800529 0.629896 -0.309310 75.914317 1.272543 6.384800 11.233737 0.000000 0.000000 0.000000 -14.669773 0.638215 -53.879439 19.179164 -8.230584 48.841707 -5.761210 -15.539988 3.241294 0.000000 0.000000 0.000000 5.164861 -4.180365 59.291956 -5.206515 1.596689 -25.394658 -5.539974 2.585177 25.439200 11.717847 -6.824823 -16.642112 0.000000 0.000000 0.000000 -22.946402 -31.561971 17.587363 -32.994816 -19.093085 -0.685492 8.829966 -34.021190 -1.297120 0.000000 0.000000 0.000000 31.382857 23.252747 14.922433 43.772342 41.521823 8.569117 -0.053197 43.272381 2.380911 0.000000 0.000000 0.000000 
-0.209716 0.828825 0.303297 -4.026635 -4.697906 11.115986 22.634908 4.453856 -36.410813 -1.072260 0.839561 75.353818 2.216456 7.545540 9.596871 0.000000 0.000000 0.000000 -13.091432 1.006777 -48.112586 15.735841 -6.108762 48.165565 -5.201912 -14.126109 3.116252 0.000000 0.000000 0.000000 4.085403 -3.582862 57.849906 -5.238885 1.616675 -25.903533 -4.978467 4.862465 25.509144 14.113382 -8.420848 -16.313050 0.000000 0.000000 0.000000 -27.584579 -29.671174 16.611081 -31.085964 -16.089776 -1.245008 3.407394 -33.240181 0.224753 0.000000 0.000000 0.000000 32.672860 20.401491 14.153050 42.075571 40.740835 7.409405 2.096210 39.996238 2.919099 0.000000 0.000000 0.000000 
-0.202423 0.848640 0.339050 -2.658570 -4.002065 9.393938 22.114451 4.437736 -38.251828 -4.203584 2.854126 67.750484 4.382949 10.941423 8.356078 0.000000 0.000000 0.000000 -13.101009 0.693103 -42.240862 12.500790 -4.214459 46.379356 -4.073202 -11.737514 4.581139 0.000000 0.000000 0.000000 4.109675 -3.662358 55.488012 -6.816275 1.959261 -26.177770 -4.965563 6.164297 25.315066 15.141012 -9.691940 -14.497384 0.000000 0.000000 0.000000 -30.502106 -26.618236 14.432602 -31.647313 -13.278704 -1.768165 -1.474855 -33.803425 1.668338 0.000000 0.000000 0.000000 35.751794 17.807699 13.519870 39.317709 37.760760 5.211234 6.158549 38.240087 4.077506 0.000000 0.000000 0.000000 
-0.187535 0.863974 0.375703 -1.298043 -3.911510 8.271256 21.750221 4.353428 -38.627298 -6.984033 3.852581 53.986761 6.615197 14.612593 7.739796 0.000000 0.000000 0.000000 -14.249302 0.268231 -35.533721 11.030859 -3.143335 41.702852 -4.410576 -12.301970 3.937896 0.000000 0.000000 0.000000 3.569289 -3.223856 53.045034 -7.982819 2.183436 -27.324676 -4.160130 7.616499 25.808987 15.020572 -8.335663 -18.384585 0.000000 0.000000 0.000000 -30.602816 -23.297974 11.430567 -33.634016 -10.334327 -2.391264 -6.110073 -34.460452 3.083842 0.000000 0.000000 0.000000 34.769440 15.419524 12.197439 40.880076 36.467770 4.945842 6.525017 36.749070 4.088361 0.000000 0.000000 0.000000 
